<svg width="274" height="574" xmlns="http://www.w3.org/2000/svg" xmlns:xlink="http://www.w3.org/1999/xlink"><defs><linearGradient x1="-20.004%" y1="96.746%" x2="149.027%" y2="-22.6%" id="c"><stop stop-color="#21D4FD" offset="0%"/><stop stop-color="#B622FF" offset="100%"/><stop stop-color="#B721FF" offset="100%"/></linearGradient><rect id="b" x="17" y="87.333" width="240" height="171" rx="6"/><filter x="-9.4%" y="-11.4%" width="118.8%" height="126.3%" filterUnits="objectBoundingBox" id="a"><feOffset dy="3" in="SourceAlpha" result="shadowOffsetOuter1"/><feGaussianBlur stdDeviation="7" in="shadowOffsetOuter1" result="shadowBlurOuter1"/><feColorMatrix values="0 0 0 0 0 0 0 0 0 0 0 0 0 0 0 0 0 0 0.189283288 0" in="shadowBlurOuter1" result="shadowMatrixOuter1"/><feOffset dy="2" in="SourceAlpha" result="shadowOffsetOuter2"/><feGaussianBlur stdDeviation="2" in="shadowOffsetOuter2" result="shadowBlurOuter2"/><feColorMatrix values="0 0 0 0 0 0 0 0 0 0 0 0 0 0 0 0 0 0 0.138357736 0" in="shadowBlurOuter2" result="shadowMatrixOuter2"/><feMerge><feMergeNode in="shadowMatrixOuter1"/><feMergeNode in="shadowMatrixOuter2"/></feMerge></filter><radialGradient cx="45.553%" cy="-183.095%" fx="45.553%" fy="-183.095%" r="287.233%" gradientTransform="matrix(.25418 -.24978 .1001 1.4782 .523 .99)" id="f"><stop stop-color="#FEE140" offset="0%"/><stop stop-color="#FA709A" offset="100%"/></radialGradient><rect id="e" width="240" height="63" rx="6"/><filter x="-9.4%" y="-31%" width="118.8%" height="171.4%" filterUnits="objectBoundingBox" id="d"><feOffset dy="3" in="SourceAlpha" result="shadowOffsetOuter1"/><feGaussianBlur stdDeviation="7" in="shadowOffsetOuter1" result="shadowBlurOuter1"/><feColorMatrix values="0 0 0 0 0 0 0 0 0 0 0 0 0 0 0 0 0 0 0.189283288 0" in="shadowBlurOuter1" result="shadowMatrixOuter1"/><feOffset dy="2" in="SourceAlpha" result="shadowOffsetOuter2"/><feGaussianBlur stdDeviation="2" in="shadowOffsetOuter2" result="shadowBlurOuter2"/><feColorMatrix values="0 0 0 0 0 0 0 0 0 0 0 0 0 0 0 0 0 0 0.101307745 0" in="shadowBlurOuter2" result="shadowMatrixOuter2"/><feMerge><feMergeNode in="shadowMatrixOuter1"/><feMergeNode in="shadowMatrixOuter2"/></feMerge></filter></defs><g fill="none" fill-rule="evenodd"><path fill="#FAFBFC" d="M0 0h274v574H0z"/><use fill="#000" filter="url(#a)" xlink:href="#b"/><use fill="url(#c)" xlink:href="#b"/><g transform="translate(18 475)"><use fill="#000" filter="url(#d)" xlink:href="#e"/><use fill="url(#f)" xlink:href="#e"/><rect stroke="#FFF" stroke-width="4" x="16" y="16" width="96" height="29.067" rx="14.533"/><rect fill="#FFF" x="127" y="14" width="100" height="33.067" rx="16.533"/></g><ellipse fill="#BDC5D0" cx="242.5" cy="38.4" rx="14.5" ry="14.4"/><rect fill="#FFF" x="77" y="117.067" width="122" height="13.867" rx="2"/><rect fill="#FFF" opacity=".467" x="88" y="141.6" width="99" height="9.6" rx="2"/><rect fill="#FFF" x="87" y="189.6" width="100" height="33.067" rx="16.533"/><rect fill="#4C5D6E" x="17" y="24" width="121" height="13" rx="2"/><rect fill="#BDC5D0" x="17" y="45" width="93" height="10" rx="2"/><rect fill="#4C5D6E" x="76" y="308" width="121" height="13" rx="2"/><rect fill="#BDC5D0" x="90" y="329" width="93" height="10" rx="2"/><g transform="translate(37 375)" fill="#D9DEE5"><rect width="199" height="10" rx="2"/><rect x="22" y="18" width="156" height="10" rx="2"/><rect x="10" y="36" width="180" height="10" rx="2"/><rect x="26" y="54" width="148" height="10" rx="2"/></g></g></svg>