<svg width="800" height="500" xmlns="http://www.w3.org/2000/svg" xmlns:xlink="http://www.w3.org/1999/xlink"><defs><path id="a" d="M0 0h800v500H0z"/><path id="c" d="M9.336 5H197v70H9.336z"/><path id="e" d="M9.336 5H197v70H9.336z"/></defs><g fill="none" fill-rule="evenodd"><mask id="b" fill="#fff"><use xlink:href="#a"/></mask><use fill="#FAFBFC" xlink:href="#a"/><rect stroke="#E4E8EF" stroke-width="2" fill="#FFF" mask="url(#b)" x="262" y="313" width="44" height="48" rx="5"/><rect stroke="#E4E8EF" stroke-width="2" fill="#FFF" mask="url(#b)" x="319" y="313" width="44" height="48" rx="5"/><rect stroke="#E4E8EF" stroke-width="2" fill="#FFF" mask="url(#b)" x="645" y="313" width="48" height="48" rx="5"/><rect stroke="#E4E8EF" stroke-width="2" fill="#FFF" mask="url(#b)" x="706" y="313" width="48" height="48" rx="5"/><rect stroke="#E4E8EF" stroke-width="2" fill="#FFF" mask="url(#b)" x="46" y="94" width="125" height="30" rx="5"/><rect stroke="#68B3FF" stroke-width="2" fill="#FFF" mask="url(#b)" x="192" y="94" width="124" height="30" rx="5"/><rect stroke="#E4E8EF" stroke-width="2" fill="#FFF" mask="url(#b)" x="338" y="94" width="124" height="30" rx="5"/><rect stroke="#E4E8EF" stroke-width="2" fill="#FFF" mask="url(#b)" x="484" y="94" width="124" height="30" rx="5"/><rect stroke="#E4E8EF" stroke-width="2" fill="#FFF" mask="url(#b)" x="629" y="94" width="125" height="30" rx="5"/><rect fill="#4C5D6E" mask="url(#b)" x="45" y="45" width="83" height="9" rx="2"/><rect fill="#BDC5D0" mask="url(#b)" x="45" y="59" width="64" height="7" rx="2"/><rect fill="#BDC5D0" mask="url(#b)" x="650" y="55" width="64" height="7" rx="2"/><rect fill="#BDC5D0" mask="url(#b)" x="572" y="55" width="64" height="7" rx="2"/><rect fill="#BDC5D0" mask="url(#b)" x="495" y="55" width="64" height="7" rx="2"/><circle fill="#4C5D6E" mask="url(#b)" cx="741" cy="59" r="14"/><g mask="url(#b)"><g transform="translate(433 312)"><rect fill="#CBD3DD" opacity=".704" x="15.867" y="1" width="110.133" height="7" rx="3"/><ellipse fill-opacity=".868" fill="#E1E5EB" cx="4.667" cy="5" rx="4.667" ry="5"/></g><g transform="translate(433 334)"><rect fill="#CBD3DD" opacity=".704" x="15.807" y="1" width="90.193" height="7" rx="3"/><ellipse fill-opacity=".868" fill="#E1E5EB" cx="4.649" cy="5" rx="4.649" ry="5"/></g><g transform="translate(433 355)"><rect fill="#CBD3DD" opacity=".704" x="15.805" y="1" width="103.195" height="7" rx="3"/><ellipse fill-opacity=".868" fill="#E1E5EB" cx="4.648" cy="5" rx="4.648" ry="5"/></g></g><g mask="url(#b)"><g transform="translate(45 312)"><rect fill="#CBD3DD" opacity=".704" x="17" y="1" width="118" height="7" rx="3"/><circle fill-opacity=".868" fill="#E1E5EB" cx="5" cy="5" r="5"/></g><g transform="translate(45 334)"><rect fill="#CBD3DD" opacity=".704" x="17" y="1" width="97" height="7" rx="3"/><circle fill-opacity=".868" fill="#E1E5EB" cx="5" cy="5" r="5"/></g><g transform="translate(45 355)"><rect fill="#CBD3DD" opacity=".704" x="17" y="1" width="111" height="7" rx="3"/><circle fill-opacity=".868" fill="#E1E5EB" cx="5" cy="5" r="5"/></g></g><g mask="url(#b)"><g transform="translate(326 420)"><rect fill="#4C5D6E" width="148" height="30" rx="4"/><rect fill-opacity=".548" fill="#FFF" x="35" y="13" width="82" height="5" rx="1"/></g></g><g mask="url(#b)"><g transform="translate(45 171)"><rect stroke="#E4E8EF" stroke-width="2" fill="#FFF" x="1" y="1" width="320" height="93" rx="4"/><rect fill="#4C5D6E" x="219" y="38" width="77" height="9" rx="2"/><rect fill="#E1E5EB" x="218" y="52" width="60" height="7" rx="2"/><g transform="translate(9 9)"><rect fill="#FAFBFC" width="171.791" height="75" rx="4"/><mask id="d" fill="#fff"><use xlink:href="#c"/></mask><path d="M14.071 36h3.602a1 1 0 0 1 1 1v61a1 1 0 0 1-1 1h-3.602a1 1 0 0 1-1-1V37a1 1 0 0 1 1-1zM27.142 49h3.602a1 1 0 0 1 1 1v49a1 1 0 0 1-1 1h-3.602a1 1 0 0 1-1-1V50a1 1 0 0 1 1-1zM39.28 43h3.602a1 1 0 0 1 1 1v55a1 1 0 0 1-1 1H39.28a1 1 0 0 1-1-1V44a1 1 0 0 1 1-1zM52.35 32h3.603a1 1 0 0 1 1 1v65a1 1 0 0 1-1 1H52.35a1 1 0 0 1-1-1V33a1 1 0 0 1 1-1zM64.488 26h3.602a1 1 0 0 1 1 1v72a1 1 0 0 1-1 1h-3.602a1 1 0 0 1-1-1V27a1 1 0 0 1 1-1zM77.56 32h3.601a1 1 0 0 1 1 1v66a1 1 0 0 1-1 1H77.56a1 1 0 0 1-1-1V33a1 1 0 0 1 1-1zM89.697 42h3.602a1 1 0 0 1 1 1v61a1 1 0 0 1-1 1h-3.602a1 1 0 0 1-1-1V43a1 1 0 0 1 1-1zM102.768 55h3.602a1 1 0 0 1 1 1v49a1 1 0 0 1-1 1h-3.602a1 1 0 0 1-1-1V56a1 1 0 0 1 1-1zM114.905 49h3.602a1 1 0 0 1 1 1v55a1 1 0 0 1-1 1h-3.602a1 1 0 0 1-1-1V50a1 1 0 0 1 1-1zM127.976 38h3.602a1 1 0 0 1 1 1v65a1 1 0 0 1-1 1h-3.602a1 1 0 0 1-1-1V39a1 1 0 0 1 1-1zM140.114 28h3.602a1 1 0 0 1 1 1v76a1 1 0 0 1-1 1h-3.602a1 1 0 0 1-1-1V29a1 1 0 0 1 1-1zM153.185 45h3.602a1 1 0 0 1 1 1v58a1 1 0 0 1-1 1h-3.602a1 1 0 0 1-1-1V46a1 1 0 0 1 1-1z" fill="#D6DCE5" mask="url(#d)"/></g></g></g><g mask="url(#b)"><g transform="translate(433 171)"><rect stroke="#E4E8EF" stroke-width="2" fill="#FFF" x="1" y="1" width="320" height="93" rx="4"/><rect fill="#4C5D6E" x="219" y="38" width="77" height="9" rx="2"/><rect fill="#E1E5EB" x="218" y="52" width="60" height="7" rx="2"/><g transform="translate(9 9)"><rect fill="#FAFBFC" width="171.791" height="75" rx="4"/><mask id="f" fill="#fff"><use xlink:href="#e"/></mask><path d="M14.071 36h3.602a1 1 0 0 1 1 1v61a1 1 0 0 1-1 1h-3.602a1 1 0 0 1-1-1V37a1 1 0 0 1 1-1zM27.142 49h3.602a1 1 0 0 1 1 1v49a1 1 0 0 1-1 1h-3.602a1 1 0 0 1-1-1V50a1 1 0 0 1 1-1zM39.28 43h3.602a1 1 0 0 1 1 1v55a1 1 0 0 1-1 1H39.28a1 1 0 0 1-1-1V44a1 1 0 0 1 1-1zM52.35 32h3.603a1 1 0 0 1 1 1v65a1 1 0 0 1-1 1H52.35a1 1 0 0 1-1-1V33a1 1 0 0 1 1-1zM64.488 26h3.602a1 1 0 0 1 1 1v72a1 1 0 0 1-1 1h-3.602a1 1 0 0 1-1-1V27a1 1 0 0 1 1-1zM77.56 32h3.601a1 1 0 0 1 1 1v66a1 1 0 0 1-1 1H77.56a1 1 0 0 1-1-1V33a1 1 0 0 1 1-1zM89.697 42h3.602a1 1 0 0 1 1 1v61a1 1 0 0 1-1 1h-3.602a1 1 0 0 1-1-1V43a1 1 0 0 1 1-1zM102.768 55h3.602a1 1 0 0 1 1 1v49a1 1 0 0 1-1 1h-3.602a1 1 0 0 1-1-1V56a1 1 0 0 1 1-1zM114.905 49h3.602a1 1 0 0 1 1 1v55a1 1 0 0 1-1 1h-3.602a1 1 0 0 1-1-1V50a1 1 0 0 1 1-1zM127.976 38h3.602a1 1 0 0 1 1 1v65a1 1 0 0 1-1 1h-3.602a1 1 0 0 1-1-1V39a1 1 0 0 1 1-1zM140.114 28h3.602a1 1 0 0 1 1 1v76a1 1 0 0 1-1 1h-3.602a1 1 0 0 1-1-1V29a1 1 0 0 1 1-1zM153.185 45h3.602a1 1 0 0 1 1 1v58a1 1 0 0 1-1 1h-3.602a1 1 0 0 1-1-1V46a1 1 0 0 1 1-1z" fill="#D6DCE5" mask="url(#f)"/></g></g></g></g></svg>